<svg width="42" height="44" viewBox="0 0 42 44" fill="none" xmlns="http://www.w3.org/2000/svg">
<path d="M22.6367 16.4631C22.0536 16.4631 21.5645 16.2655 21.1694 15.8704C20.7743 15.4753 20.5774 14.9869 20.5788 14.4052V10.2894H16.4631C15.88 10.2894 15.3909 10.0919 14.9958 9.69674C14.6007 9.30163 14.4038 8.81323 14.4052 8.23153C14.4052 7.64847 14.6027 7.15938 14.9978 6.76426C15.393 6.36915 15.8814 6.17228 16.4631 6.17365H20.5788V2.05789C20.5788 1.47482 20.7764 0.985732 21.1715 0.590619C21.5666 0.195506 22.055 -0.0013648 22.6367 7.1207e-06C23.2198 7.1207e-06 23.7089 0.197564 24.104 0.592677C24.4991 0.98779 24.696 1.47619 24.6946 2.05789V6.17365H28.8103C29.3934 6.17365 29.8825 6.37121 30.2776 6.76632C30.6727 7.16144 30.8696 7.64984 30.8682 8.23153C30.8682 8.8146 30.6707 9.30369 30.2756 9.6988C29.8804 10.0939 29.392 10.2908 28.8103 10.2894H24.6946V14.4052C24.6946 14.9882 24.497 15.4773 24.1019 15.8724C23.7068 16.2676 23.2184 16.4644 22.6367 16.4631ZM12.3473 43.2155C11.2155 43.2155 10.2462 42.8122 9.43951 42.0055C8.63282 41.1988 8.23016 40.2302 8.23153 39.0998C8.23153 37.9679 8.63488 36.9987 9.44157 36.192C10.2483 35.3853 11.2168 34.9826 12.3473 34.984C13.4791 34.984 14.4484 35.3873 15.2551 36.194C16.0618 37.0007 16.4644 37.9693 16.4631 39.0998C16.4631 40.2316 16.0597 41.2009 15.253 42.0075C14.4463 42.8142 13.4778 43.2169 12.3473 43.2155ZM32.9261 43.2155C31.7943 43.2155 30.825 42.8122 30.0183 42.0055C29.2116 41.1988 28.809 40.2302 28.8103 39.0998C28.8103 37.9679 29.2137 36.9987 30.0204 36.192C30.8271 35.3853 31.7956 34.9826 32.9261 34.984C34.0579 34.984 35.0272 35.3873 35.8339 36.194C36.6406 37.0007 37.0432 37.9693 37.0419 39.0998C37.0419 40.2316 36.6385 41.2009 35.8318 42.0075C35.0252 42.8142 34.0566 43.2169 32.9261 43.2155ZM12.3473 32.9261C10.7696 32.9261 9.57739 32.2484 8.7707 30.8929C7.96401 29.5375 7.95578 28.1916 8.746 26.8554L11.5241 21.8136L4.11577 6.17365H2.05789C1.47482 6.17365 0.985732 5.9761 0.590619 5.58098C0.195506 5.18587 -0.0013648 4.69746 7.1207e-06 4.11577C7.1207e-06 3.5327 0.197564 3.04361 0.592677 2.6485C0.98779 2.25339 1.47619 2.05652 2.05789 2.05789H5.45339C5.83067 2.05789 6.1908 2.16078 6.53378 2.36657C6.87676 2.57236 7.134 2.86389 7.30549 3.24117L15.4856 20.5788H29.9422L37.3506 7.20259C37.522 6.89391 37.7621 6.64491 38.0708 6.45558C38.3795 6.26626 38.7225 6.17228 39.0998 6.17365C39.8886 6.17365 40.4806 6.5084 40.8757 7.1779C41.2708 7.8474 41.279 8.52444 40.9004 9.20903L33.5435 22.5338C33.1662 23.2198 32.66 23.7514 32.0248 24.1287C31.3896 24.5059 30.6954 24.6946 29.9422 24.6946H14.611L12.3473 28.8104H34.984C35.5671 28.8104 36.0561 29.0079 36.4513 29.403C36.8464 29.7981 37.0432 30.2865 37.0419 30.8682C37.0419 31.4513 36.8443 31.9404 36.4492 32.3355C36.0541 32.7306 35.5657 32.9275 34.984 32.9261H12.3473Z" fill="white"/>
</svg>
